<svg width="40" height="40" viewBox="0 0 40 40" fill="none" xmlns="http://www.w3.org/2000/svg">
<path d="M10.0002 5V10H5.00024V5H10.0002ZM2.50024 2.5V12.5H12.5002V2.5H2.50024ZM22.5002 8.75V13.75H17.5002V8.75H22.5002ZM15.0002 6.25V16.25H25.0002V6.25H15.0002ZM10.0002 20V25H5.00024V20H10.0002ZM2.50024 17.5V27.5H12.5002V17.5H2.50024Z" fill="#479F6F"/>
<path d="M27.5002 12.5V20H20.0002V27.5H12.5002V37.5H37.5002V12.5H27.5002ZM22.5002 22.5H27.5002V27.5H22.5002V22.5ZM20.0002 35H15.0002V30H20.0002V35ZM27.5002 35H22.5002V30H27.5002V35ZM35.0002 35H30.0002V30H35.0002V35ZM35.0002 27.5H30.0002V22.5H35.0002V27.5ZM30.0002 20V15H35.0002V20H30.0002Z" fill="#479F6F"/>
</svg>
