<svg width="40" height="40" viewBox="0 0 40 40" fill="none" xmlns="http://www.w3.org/2000/svg">
<g clip-path="url(#clip0_29_47)">
<path d="M40.5468 13.2913C40.2692 15.639 39.5475 17.6139 38.3657 19.2636C37.8026 20.0567 36.5732 21.3099 35.7801 21.9047C35.1377 22.3885 33.7893 23.2055 33.6386 23.2055C33.5038 23.2055 33.5117 23.3403 33.6466 23.4196C33.8052 23.5148 33.9321 23.8003 33.9321 24.0779C33.9321 24.4348 33.5593 24.7917 33.1945 24.7917C32.8455 24.7917 31.0372 23.9907 30.7596 23.721C30.4661 23.4196 30.5137 23.0786 31.053 21.8968C31.4734 20.9688 31.5448 20.8499 31.8144 20.723C32.0603 20.5961 32.1476 20.5881 32.3855 20.6674C32.7503 20.7864 32.901 21.0164 32.901 21.4447C32.901 21.8571 32.8931 21.8651 33.7893 21.3257C35.5897 20.2392 36.9857 18.7639 37.874 16.9794C38.675 15.3852 38.9606 14.132 38.9606 12.1809C38.9606 10.5867 38.8099 9.69051 38.3181 8.37391C37.755 6.8511 37.0412 5.78037 35.7325 4.51136C33.6783 2.51267 31.3703 1.60056 28.3802 1.60056C25.3901 1.60056 23.0979 2.50473 21.012 4.51929C19.4178 6.0659 18.4184 7.85837 17.9902 9.94431C17.4112 12.8154 17.9902 15.8135 19.5844 18.1849C19.7985 18.5022 20.3378 19.1446 20.782 19.6126C21.9003 20.8023 22.511 21.6509 23.1059 22.8486C23.6769 23.9907 23.9386 24.7283 24.1924 25.8783C24.4304 26.957 24.4542 29.6378 24.2242 30.6609C23.9148 32.1044 23.2645 33.8017 22.8996 34.1348C22.622 34.3966 22.1224 34.3728 21.8527 34.0872C21.5592 33.7858 21.5751 33.4369 21.9082 32.7072C22.2889 31.8744 22.5507 30.994 22.7093 30.0343C22.8917 28.9477 22.8362 26.957 22.5983 26.0132C22.0906 23.9827 21.3134 22.5551 19.8382 20.953C18.6247 19.6284 18.0298 18.8194 17.5143 17.7725C15.9994 14.711 15.7694 11.3957 16.848 8.15183C17.8157 5.21724 20.0285 2.67922 22.8283 1.27538C23.7245 0.823296 25.1204 0.355347 26.1594 0.157066C27.3095 -0.0650138 29.554 -0.0491484 30.7358 0.18879C33.4483 0.728119 35.796 2.06851 37.5646 4.091C39.492 6.28797 40.4834 8.85772 40.5547 11.824C40.5706 12.4744 40.5627 13.1406 40.5468 13.2913Z" fill="#479F6F"/>
<path d="M36.1924 14.1718C36.0496 14.4414 35.7958 14.5366 34.9234 14.6318C34.5347 14.6794 34.2016 14.7507 34.1858 14.7904C34.1699 14.8301 34.0192 15.0918 33.8527 15.3773C33.6782 15.6628 33.5354 15.9325 33.5354 15.9801C33.5354 16.0277 33.6623 16.3449 33.813 16.6939C34.1382 17.4315 34.1699 17.8202 33.9161 18.074C33.6464 18.3436 30.807 19.9537 30.6087 19.9537C30.2836 19.9537 29.998 19.7316 29.5777 19.1288L29.1494 18.526L28.388 18.526L27.6186 18.526L27.1903 19.1288C26.7224 19.7792 26.421 19.9933 26.072 19.922C25.7786 19.8664 22.9868 18.2564 22.8123 18.0422C22.5981 17.7884 22.6378 17.4077 22.9709 16.6463L23.2802 15.9404L23.0185 15.5597C22.8757 15.3456 22.7171 15.0759 22.6695 14.949C22.5664 14.7111 22.4791 14.6794 21.6384 14.6C20.4646 14.489 20.4487 14.4573 20.4487 12.181C20.4487 10.2616 20.4884 10.0554 20.9008 9.89677C21.0198 9.84126 21.4481 9.76987 21.8367 9.72229C22.2333 9.6747 22.5585 9.61125 22.5743 9.57952C22.5823 9.5478 22.7329 9.27813 22.9074 8.97674C23.0819 8.67535 23.2247 8.39776 23.2247 8.3581C23.2247 8.31844 23.0978 7.99326 22.9471 7.65221C22.6219 6.90667 22.5981 6.55769 22.8519 6.28009C23.1454 5.96284 25.9213 4.4083 26.2069 4.4083C26.532 4.4083 26.7462 4.59072 27.23 5.27282L27.6266 5.83594L28.38 5.83594L29.1335 5.82801L29.5697 5.23316C30.0773 4.53521 30.228 4.4083 30.5612 4.4083C30.8388 4.4083 33.6226 5.96284 33.9161 6.28009C34.162 6.55769 34.1382 6.90667 33.813 7.65221C33.4878 8.38189 33.4878 8.39776 33.6861 8.67535C33.7654 8.79432 33.9161 9.04812 34.0113 9.24641C34.1065 9.44469 34.1937 9.61125 34.2016 9.61918C34.2096 9.62711 34.5347 9.6747 34.9234 9.72229C35.8038 9.82539 36.0496 9.92057 36.1924 10.2061C36.3589 10.5233 36.3589 13.8704 36.1924 14.1718ZM34.4713 11.2768C34.3285 11.253 34.0351 11.2134 33.8209 11.1896C33.1864 11.1023 33.0912 11.031 32.7026 10.2458C32.5123 9.84919 32.2188 9.34951 32.0681 9.13537C31.7271 8.66742 31.7191 8.46121 32.0284 7.77911C32.1633 7.48565 32.2664 7.20806 32.2664 7.15254C32.2664 7.09702 32.1474 6.99391 32.0126 6.92253C31.8698 6.85115 31.5288 6.66873 31.267 6.51803L30.7832 6.23251L30.458 6.69252C29.9029 7.49359 29.9822 7.45393 28.4356 7.46979C27.4521 7.47772 27.0238 7.446 26.9048 7.37462C26.8096 7.3191 26.5638 7.0415 26.3576 6.75597L25.9769 6.24044L25.493 6.51803C25.2234 6.66873 24.8903 6.85115 24.7554 6.92253C24.6127 6.99391 24.4937 7.09702 24.4937 7.14461C24.4937 7.20013 24.5968 7.47772 24.7316 7.76325C25.0568 8.485 25.041 8.68328 24.6127 9.28606C24.4144 9.55573 24.1368 10.0475 23.9861 10.3647C23.8354 10.6899 23.6451 10.9913 23.5657 11.0468C23.4785 11.0944 23.2009 11.1579 22.9392 11.1896C22.6854 11.2134 22.376 11.261 22.2571 11.2768L22.035 11.3244L22.035 12.1889C22.035 12.8234 22.0588 13.0534 22.1381 13.0534C22.4791 13.0614 23.415 13.22 23.5499 13.2914C23.6371 13.339 23.8433 13.6721 24.0099 14.029C24.1764 14.3859 24.462 14.8697 24.6444 15.1076C25.041 15.639 25.0568 15.8611 24.7316 16.5829C24.5968 16.8763 24.4937 17.146 24.4937 17.1777C24.4937 17.2174 24.7158 17.376 24.9934 17.5426C25.263 17.7012 25.5962 17.8995 25.731 17.9788L25.9769 18.1295L26.2624 17.7091C26.8414 16.8763 26.7621 16.9001 28.3721 16.8922C29.2842 16.8922 29.8235 16.916 29.9029 16.9715C29.9663 17.0191 30.1884 17.2967 30.4105 17.5822L30.807 18.1057L31.4733 17.725C31.846 17.5108 32.1791 17.2967 32.2109 17.2412C32.2505 17.1777 32.1871 16.9319 32.0364 16.5987C31.7033 15.8611 31.7191 15.647 32.1236 15.1156C32.2981 14.8776 32.5836 14.3859 32.7502 14.029C32.9168 13.6721 33.123 13.339 33.2102 13.2914C33.345 13.22 34.2809 13.0614 34.6299 13.0534C34.7013 13.0534 34.7251 12.8234 34.7251 12.181L34.7251 11.3165L34.4713 11.2768Z" fill="#479F6F"/>
<path d="M31.0528 12.9027C30.8228 13.7196 30.2914 14.3383 29.4904 14.711C28.8559 15.0045 27.8962 15.0045 27.2537 14.7031C26.6827 14.4334 26.1275 13.8862 25.8578 13.3072C25.6754 12.9265 25.6437 12.7441 25.6437 12.1809C25.6437 11.3957 25.8499 10.8485 26.3575 10.2854C27.1982 9.3574 28.8003 9.15118 29.879 9.84121C30.8466 10.4598 31.3622 11.8002 31.0528 12.9027ZM29.4428 11.6575C29.2683 11.2847 28.9114 11.0547 28.4672 11.015C27.9676 10.9675 27.6027 11.1737 27.3727 11.6258C27.1506 12.054 27.1506 12.2761 27.3489 12.7203C27.4679 12.982 27.5789 13.093 27.8407 13.212C28.2769 13.4103 28.491 13.4103 28.8955 13.212C29.4824 12.9265 29.7204 12.2444 29.4428 11.6575Z" fill="#479F6F"/>
<path d="M20.8533 36.9426C20.6629 37.1567 20.5678 37.2043 20.2902 37.2043C19.497 37.2043 19.2115 36.1336 19.9015 35.7687C20.3378 35.5466 20.7581 35.6577 20.9643 36.0542C21.1388 36.3953 21.1071 36.657 20.8533 36.9426Z" fill="#479F6F"/>
<path d="M20.0126 30.3516C19.8698 30.6134 19.6081 30.7165 18.9419 30.7799C18.0694 30.8592 18.0298 30.8751 17.8473 31.2399C17.7522 31.4223 17.6015 31.7079 17.5063 31.8665L17.3318 32.152L17.6173 32.8262C17.9425 33.5717 17.9822 33.9683 17.776 34.2221C17.5935 34.4362 14.8017 36.0463 14.5082 36.1018C14.1672 36.1732 13.9213 35.9908 13.4058 35.3166L12.9458 34.69L12.2002 34.69L11.4626 34.69L11.0026 35.3246C10.5188 35.9829 10.2174 36.1891 9.86843 36.1018C9.55911 36.0225 6.78315 34.3966 6.63245 34.2062C6.41831 33.9445 6.4659 33.54 6.79901 32.8103L7.1004 32.1362L6.75935 31.5889C6.569 31.2796 6.40244 31.002 6.39451 30.9623C6.37865 30.9227 5.99795 30.8434 5.54586 30.7878C4.77653 30.6927 4.70514 30.6768 4.49893 30.4389L4.26892 30.1851L4.26892 28.3926C4.26892 26.4335 4.30858 26.2432 4.72101 26.0687C4.91929 25.9894 5.9107 25.8308 6.25968 25.8228C6.32313 25.8228 6.4421 25.688 6.52141 25.5214C6.60073 25.3628 6.76729 25.0773 6.88626 24.9028L7.10833 24.5697L6.79901 23.8797C6.4421 23.0786 6.41038 22.7455 6.66418 22.46C6.94177 22.1586 9.74153 20.5882 10.0033 20.5882C10.3522 20.5882 10.495 20.6992 11.0105 21.3813L11.4943 22.0158L12.224 22.0158L12.9537 22.0079L13.3899 21.413C13.8975 20.7151 14.0482 20.5882 14.3813 20.5882C14.6669 20.5882 17.4508 22.1427 17.7363 22.46C17.9822 22.7376 17.9584 23.0548 17.6173 23.8638C17.3318 24.5538 17.3318 24.5776 17.4666 24.7759C17.538 24.8949 17.6966 25.1725 17.8077 25.3945C18.0377 25.8466 17.9029 25.799 19.2195 25.9497C19.5843 25.9894 19.7429 26.0528 19.9095 26.2273L20.1316 26.4415L20.1316 28.2974C20.1236 29.7409 20.0998 30.193 20.0126 30.3516ZM18.4105 27.4567C18.3311 27.4408 18.0218 27.4012 17.7284 27.3694C17.0939 27.306 16.8242 27.1077 16.61 26.5525C16.5387 26.3622 16.3483 26.0053 16.1818 25.7673C16.0231 25.5214 15.8248 25.228 15.7535 25.117C15.5552 24.8235 15.579 24.5697 15.8486 23.959C15.9835 23.6655 16.0866 23.3879 16.0866 23.3403C16.0866 23.2848 15.9835 23.1896 15.8645 23.1183C15.7376 23.0469 15.4045 22.8565 15.119 22.6979L14.6034 22.4124L14.2703 22.8803C13.723 23.6655 13.7786 23.6417 12.1844 23.6417C11.1374 23.6338 10.7567 23.61 10.6616 23.5307C10.5902 23.4672 10.3681 23.1976 10.1619 22.92L9.79705 22.4203L9.31324 22.6979C9.04357 22.8486 8.71046 23.031 8.57563 23.1024C8.43286 23.1738 8.31389 23.269 8.31389 23.3086C8.31389 23.3483 8.417 23.6179 8.55183 23.9193C8.87702 24.6649 8.86115 24.8949 8.45666 25.4263C8.28217 25.6642 7.99664 26.148 7.83801 26.497C7.51283 27.195 7.40179 27.2822 6.75935 27.3694C6.54521 27.3932 6.25175 27.4329 6.11692 27.4567L5.85518 27.4963L5.85518 28.3609C5.85518 29.0033 5.87898 29.2333 5.95829 29.2333C6.29934 29.2412 7.23523 29.3999 7.37007 29.4792C7.45731 29.5268 7.67146 29.8519 7.83801 30.2089C8.00457 30.5658 8.28217 31.0496 8.46459 31.2875C8.86908 31.8189 8.87702 32.0331 8.53597 32.7945C8.38527 33.1355 8.31389 33.3893 8.36148 33.4369C8.40114 33.4686 8.74218 33.6828 9.12289 33.8969L9.81291 34.2935L10.0191 33.9842C10.1302 33.8097 10.3443 33.5321 10.495 33.3655L10.7726 33.0641L12.1764 33.08C12.9537 33.0879 13.6437 33.1196 13.7151 33.1514C13.7865 33.1831 14.0086 33.4369 14.2148 33.7224C14.4131 34 14.6114 34.23 14.6589 34.23C14.7779 34.23 16.0866 33.4369 16.0866 33.3655C16.0866 33.3259 15.9835 33.0403 15.8486 32.7389C15.5314 31.9934 15.5393 31.8189 15.9438 31.2954C16.1183 31.0575 16.4038 30.5658 16.5704 30.2089C16.7369 29.8519 16.9432 29.5188 17.0304 29.4712C17.1652 29.3999 18.1011 29.2412 18.4501 29.2333C18.5215 29.2333 18.5453 29.0033 18.5453 28.3688C18.5453 27.6074 18.5294 27.4963 18.4105 27.4567Z" fill="#479F6F"/>
<path d="M14.8652 29.1302C14.5955 29.955 14.0879 30.5261 13.3106 30.8909C12.7158 31.1685 11.8275 31.1685 11.1295 30.8989C9.68601 30.3358 9.02771 28.5036 9.74946 27.076C10.7726 25.0694 13.6993 25.1169 14.7065 27.1553C14.9683 27.6946 15.0397 28.5909 14.8652 29.1302ZM13.1758 27.6629C12.6761 26.9729 11.6133 27.0363 11.193 27.7739C10.8916 28.2974 11.0026 28.8526 11.4785 29.2571C12.0258 29.7092 12.8585 29.5664 13.2154 28.9557C13.4375 28.575 13.4217 27.9881 13.1758 27.6629Z" fill="#479F6F"/>
<path d="M18.101 38.8936C17.9979 39.0999 17.8234 39.2188 17.3237 39.4568C13.5564 41.2413 8.90862 40.8527 5.31573 38.4574C4.46708 37.8943 3.06324 36.546 2.40494 35.6656C0.18417 32.7072 -0.553443 28.8209 0.422109 25.1883C1.31042 21.8889 3.51532 19.0812 6.40232 17.5822L7.05269 17.2491L6.84647 17.0111C6.48163 16.5749 6.63233 16.0039 7.17166 15.7818C7.47305 15.6549 7.44132 15.647 8.82137 16.2418C9.78106 16.6622 10.0587 16.8922 10.0587 17.2887C10.0587 17.5267 9.11483 19.5809 8.94034 19.7316C8.68654 19.9457 8.21859 19.914 7.9172 19.6602C7.68719 19.4699 7.67133 19.4143 7.69513 19.0733L7.71892 18.6926L7.12407 19.0098C6.26749 19.4778 5.60126 19.9695 4.79226 20.7468C2.9522 22.5075 1.92906 24.6411 1.64353 27.2901C1.44525 29.2016 1.84975 31.4541 2.6984 33.1593C3.68188 35.1263 5.70437 37.0853 7.67926 37.9815C9.08311 38.6161 10.2331 38.8936 11.7242 38.965C13.4612 39.0364 14.8809 38.7747 16.5385 38.0688C17.2999 37.7436 17.3951 37.7198 17.641 37.7991C18.1089 37.9578 18.3152 38.4574 18.101 38.8936Z" fill="#479F6F"/>
</g>
<defs>
<clipPath id="clip0_29_47">
<rect width="40" height="40" fill="white"/>
</clipPath>
</defs>
</svg>
