<svg width="40" height="40" viewBox="0 0 40 40" fill="none" xmlns="http://www.w3.org/2000/svg">
<path d="M29.375 27.5H28.75V25H29.375C30.8668 25.0597 32.3213 24.5243 33.4184 23.5116C34.5155 22.4989 35.1653 21.0919 35.225 19.6C35.2847 18.1082 34.7493 16.6537 33.7366 15.5566C32.7239 14.4595 31.3169 13.8097 29.825 13.75H28.75L28.625 12.725C28.3477 10.6206 27.3148 8.68869 25.7189 7.28924C24.1229 5.88979 22.0726 5.1182 19.95 5.1182C17.8274 5.1182 15.7771 5.88979 14.1811 7.28924C12.5852 8.68869 11.5523 10.6206 11.275 12.725L11.25 13.75H10.175C8.68316 13.8097 7.27613 14.4595 6.26343 15.5566C5.25074 16.6537 4.71533 18.1082 4.77501 19.6C4.83468 21.0919 5.48454 22.4989 6.58163 23.5116C7.67872 24.5243 9.13316 25.0597 10.625 25H11.25V27.5H10.625C8.62051 27.4873 6.69146 26.7341 5.20874 25.3851C3.72601 24.0362 2.79428 22.1867 2.59267 20.1924C2.39106 18.198 2.93381 16.1995 4.11657 14.5811C5.29933 12.9627 7.03861 11.8386 9.00001 11.425C9.53964 8.90816 10.926 6.65248 12.9279 5.03435C14.9297 3.41622 17.426 2.53351 20 2.53351C22.5741 2.53351 25.0703 3.41622 27.0721 5.03435C29.074 6.65248 30.4604 8.90816 31 11.425C32.9614 11.8386 34.7007 12.9627 35.8834 14.5811C37.0662 16.1995 37.609 18.198 37.4073 20.1924C37.2057 22.1867 36.274 24.0362 34.7913 25.3851C33.3085 26.7341 31.3795 27.4873 29.375 27.5Z" fill="#479F6F"/>
<path d="M21.25 32.7125V17.5H18.75V32.7125L15.5125 29.4875L13.75 31.25L20 37.5L26.25 31.25L24.4875 29.4875L21.25 32.7125Z" fill="#479F6F"/>
</svg>
