<svg width="24" height="24" viewBox="0 0 24 24" fill="none" xmlns="http://www.w3.org/2000/svg">
<path fill-rule="evenodd" clip-rule="evenodd" d="M11.9994 0C5.37262 0 0 5.50898 0 12.3045C0 17.7406 3.43754 22.3524 8.20646 23.9784C8.80708 24.0922 9.02554 23.7134 9.02554 23.3862C9.02554 23.0947 9.01508 22.3214 9.00985 21.2936C5.67169 22.0378 4.96738 19.6439 4.96738 19.6439C4.42154 18.2227 3.63477 17.8447 3.63477 17.8447C2.54523 17.0819 3.71754 17.0967 3.71754 17.0967C4.92185 17.1841 5.55569 18.3643 5.55569 18.3643C6.62585 20.2446 8.36462 19.7004 9.048 19.3874C9.15662 18.5908 9.46739 18.0498 9.80985 17.7416C7.14554 17.4311 4.34431 16.3755 4.34431 11.6609C4.34431 10.3173 4.81169 9.21876 5.57908 8.35843C5.45631 8.04863 5.04369 6.79773 5.69692 5.10295C5.69692 5.10295 6.70431 4.77233 8.99723 6.3652C9.95385 6.09105 10.9806 5.95413 12.0012 5.95003C13.0203 5.95444 14.0474 6.09105 15.0052 6.3652C17.2966 4.77233 18.3025 5.10295 18.3025 5.10295C18.9572 6.79773 18.5449 8.04863 18.4218 8.35843C19.1911 9.21876 19.6551 10.3173 19.6551 11.6609C19.6551 16.3866 16.8498 17.4276 14.1766 17.7311C14.6068 18.1113 14.9908 18.8637 14.9908 20.0118C14.9908 21.6558 14.9763 22.9824 14.9763 23.3859C14.9763 23.7156 15.192 24.0989 15.8012 23.9768C20.5649 22.3473 24 17.739 24 12.3045C24 5.50898 18.6274 0 11.9994 0Z" fill="white"/>
</svg>
