<svg width="40" height="40" viewBox="0 0 40 40" fill="none" xmlns="http://www.w3.org/2000/svg">
<path d="M21.6667 33.3333C21.6667 30.8056 21.1873 28.4306 20.2284 26.2083C19.2706 23.9861 17.9584 22.0417 16.2917 20.375C14.625 18.7083 12.6806 17.3961 10.4584 16.4383C8.23615 15.4794 5.86115 15 3.33337 15V10C3.33337 9.08334 3.66004 8.29889 4.31337 7.64667C4.9656 6.99334 5.75004 6.66667 6.66671 6.66667H33.3334C34.25 6.66667 35.035 6.99334 35.6884 7.64667C36.3406 8.29889 36.6667 9.08334 36.6667 10V30C36.6667 30.9167 36.3406 31.7017 35.6884 32.355C35.035 33.0072 34.25 33.3333 33.3334 33.3333H21.6667ZM15 33.3333C15 30.0833 13.8684 27.3261 11.605 25.0617C9.3406 22.7983 6.58337 21.6667 3.33337 21.6667V18.3333C5.41671 18.3333 7.36837 18.7289 9.18837 19.52C11.0073 20.3122 12.5906 21.3817 13.9384 22.7283C15.285 24.0761 16.3545 25.66 17.1467 27.48C17.9378 29.2989 18.3334 31.25 18.3334 33.3333H15ZM8.33337 33.3333C8.33337 31.9444 7.84726 30.7639 6.87504 29.7917C5.90282 28.8194 4.72226 28.3333 3.33337 28.3333V25C5.63893 25 7.60393 25.8122 9.22837 27.4367C10.8539 29.0622 11.6667 31.0278 11.6667 33.3333H8.33337ZM24.5834 19.6667L31.25 15.8333L24.5834 12L17.9167 15.8333L24.5834 19.6667ZM24.5834 24.75L29.1667 22.0833V18.5833L24.5834 21.25L20 18.5833V22.0833L24.5834 24.75Z" fill="#479F6F"/>
</svg>
