<svg width="35" height="24" viewBox="0 0 35 24" fill="none" xmlns="http://www.w3.org/2000/svg">
<path d="M33.5642 3.74694C33.3691 3.02209 32.987 2.3612 32.4562 1.83041C31.9254 1.29962 31.2645 0.917555 30.5397 0.722449C27.8703 2.18956e-07 17.1438 0 17.1438 0C17.1438 0 6.41725 2.18956e-07 3.74786 0.722449C3.02301 0.917555 2.36212 1.29962 1.83133 1.83041C1.30054 2.3612 0.918476 3.02209 0.72337 3.74694C0.224936 6.46931 -0.0169402 9.23244 0.00092135 12C-0.0169402 14.7676 0.224936 17.5307 0.72337 20.2531C0.918476 20.9779 1.30054 21.6388 1.83133 22.1696C2.36212 22.7004 3.02301 23.0824 3.74786 23.2776C6.41725 24 17.1438 24 17.1438 24C17.1438 24 27.8703 24 30.5397 23.2776C31.2645 23.0824 31.9254 22.7004 32.4562 22.1696C32.987 21.6388 33.3691 20.9779 33.5642 20.2531C34.0626 17.5307 34.3045 14.7676 34.2866 12C34.3045 9.23244 34.0626 6.46931 33.5642 3.74694ZM13.7152 17.1429V6.85714L22.6172 12L13.7152 17.1429Z" fill="white"/>
</svg>
